<svg width="1024" height="1024" viewBox="0 0 1024 1024" fill="none" xmlns="http://www.w3.org/2000/svg">
<path d="M711.361 321.352C752.694 371.214 778 438.227 778 511.914C778 665.352 668.277 789.851 532.599 790.821L531.002 790.827H258.731L321.1 716.498L321.007 716.421L499.712 503.448L567.66 422.471C593.75 441.231 611.057 474.18 611.058 511.695C611.058 531 600.5 545 596 551.5L579.881 570.718L580.218 571.001L491.239 677.042H523.847L525.742 677.028C605.857 675.882 670.488 602.189 670.488 511.451C670.488 472.4 658.516 436.507 638.492 408.194L711.361 321.352ZM532.599 233.006C588.624 233.406 640.223 254.871 681.499 290.737L609.256 376.834C585.681 357.727 556.882 346.32 525.742 345.874L523.847 345.86H355.235V593.688L247 722.678V233H531.002L532.599 233.006Z" fill="#D9D9D9"/>
</svg>
