<svg width="1024" height="1024" viewBox="0 0 1024 1024" fill="none" xmlns="http://www.w3.org/2000/svg">
<path d="M778.646 256.468C834.068 323.326 868 413.182 868 511.986C868 717.726 720.876 884.664 538.95 885.965L536.809 885.972H171.729L255.357 786.307L255.233 786.203L494.854 500.635L585.963 392.055C620.945 417.21 644.152 461.391 644.152 511.693C644.152 523.693 642.829 535.344 640.343 546.472L602.8 591.213L602.801 591.214L483.492 733.4H527.214C635.808 733.4 723.841 633.992 723.842 511.366C723.842 459.004 707.787 410.877 680.938 372.913L778.646 256.468ZM538.95 138.008C614.073 138.545 683.261 167.326 738.606 215.419L641.739 330.86C609.487 304.721 569.942 289.331 527.214 289.331H301.129V621.634L156 794.592V138H536.809L538.95 138.008Z" fill="#D9D9D9"/>
</svg>
